<svg width="35" height="40" viewBox="0 0 35 40" fill="none" xmlns="http://www.w3.org/2000/svg">
<path d="M3.21164 35.1639L0.085073 0.0966992H34.4401L31.3101 35.1586L17.2416 39.0586L3.21164 35.1639Z" fill="#E44D26"/>
<path d="M17.2626 36.0776L28.6307 32.9258L31.3054 2.96389H17.2626V36.0776Z" fill="#F16529"/>
<path d="M17.2626 15.9698H11.5713L11.1782 11.5654H17.2626V7.26482H6.47789L7.63789 20.2708H17.2626V15.9698ZM17.2626 27.1395L17.2435 27.1448L12.4538 25.8511L12.1479 22.4214H7.83007L8.43257 29.1742L17.2429 31.6198L17.2626 31.6145V27.1395Z" fill="#EBEBEB"/>
<path d="M17.2476 15.9698V20.2708H22.5435L22.0444 25.8486L17.2476 27.1433V31.618L26.0648 29.1742L27.1401 17.1248L27.2448 15.9698H17.2476ZM17.2476 7.26482V11.5654H27.6363L28.0216 7.26482H17.2476Z" fill="white"/>
<path d="M3.14187 35.2409L0 0H34.525L31.38 35.2356L17.2416 39.1553L3.14187 35.2409Z" fill="#1572B6"/>
<path d="M17.2629 36.1596L28.6876 32.9921L31.3754 2.88147H17.2629V36.1596Z" fill="#33A9DC"/>
<path d="M17.2629 15.6491H22.9823L23.3773 11.2231H17.2629V6.90094H28.101L26.9348 19.9713H17.2629V15.6491Z" fill="white"/>
<path d="M17.2885 26.8741L17.2694 26.8797L12.456 25.5801L12.1482 22.1329H7.81006L8.41537 28.9194L17.2688 31.3766L17.2885 31.371V26.8741Z" fill="#EBEBEB"/>
<path d="M22.6148 19.7886L22.0941 25.5767L17.2735 26.8779V31.3748L26.1341 28.9192L26.951 19.7886H22.6148Z" fill="white"/>
<path d="M17.2775 6.90094V11.2231H6.83753L6.45065 6.90094H17.2775ZM17.2629 15.6491V19.9713L12.51 19.9719L12.2263 16.8094L12.1232 15.6497L17.2629 15.6491Z" fill="#EBEBEB"/>
</svg>
