<svg width="27" height="41" viewBox="0 0 27 41" fill="none" xmlns="http://www.w3.org/2000/svg">
<path d="M6.71875 40.3125C10.4375 40.3125 13.4375 37.3125 13.4375 33.5938V26.875H6.71875C3 26.875 0 29.875 0 33.5938C0 37.3125 3 40.3125 6.71875 40.3125Z" fill="#0ACF83"/>
<path d="M0 20.1562C0 16.4375 3 13.4375 6.71875 13.4375H13.4375V26.875H6.71875C3 26.875 0 23.875 0 20.1562Z" fill="#A259FF"/>
<path d="M0 6.71875C0 3 3 0 6.71875 0H13.4375V13.4375H6.71875C3 13.4375 0 10.4375 0 6.71875Z" fill="#F24E1E"/>
<path d="M13.4375 0H20.1562C23.875 0 26.875 3 26.875 6.71875C26.875 10.4375 23.875 13.4375 20.1562 13.4375H13.4375V0Z" fill="#FF7262"/>
<path d="M26.875 20.1562C26.875 23.875 23.875 26.875 20.1562 26.875C16.4375 26.875 13.4375 23.875 13.4375 20.1562C13.4375 16.4375 16.4375 13.4375 20.1562 13.4375C23.875 13.4375 26.875 16.4375 26.875 20.1562Z" fill="#1ABCFE"/>
</svg>
