<svg width="35" height="39" viewBox="0 0 35 39" fill="none" xmlns="http://www.w3.org/2000/svg">
<path d="M3.12656 35.0672L0 0H34.355L31.225 35.0619L17.1566 38.9619L3.12656 35.0672Z" fill="#E44D26"/>
<path d="M17.1775 35.9809L28.5456 32.8291L31.2203 2.86719H17.1775V35.9809Z" fill="#F16529"/>
<path d="M17.1775 15.8731H11.4862L11.0931 11.4688H17.1775V7.16813H6.39281L7.55281 20.1741H17.1775V15.8731ZM17.1775 27.0428L17.1584 27.0481L12.3688 25.7544L12.0628 22.3247H7.745L8.3475 29.0775L17.1578 31.5231L17.1775 31.5178V27.0428Z" fill="#EBEBEB"/>
<path d="M17.1625 15.8731V20.1741H22.4584L21.9594 25.7519L17.1625 27.0466V31.5212L25.9797 29.0775L27.055 17.0281L27.1597 15.8731H17.1625ZM17.1625 7.16813V11.4688H27.5513L27.9366 7.16813H17.1625Z" fill="white"/>
</svg>
