<svg width="40" height="40" viewBox="0 0 40 40" fill="none" xmlns="http://www.w3.org/2000/svg">
<path d="M0 0H39.12V39.1203H0V0Z" fill="#F0DB4F"/>
<path d="M35.9184 30.79C35.6319 29.0053 34.4681 27.5063 31.0209 26.1085C29.8234 25.5581 28.4884 25.1641 28.0906 24.2566C27.9494 23.7285 27.9306 23.431 28.02 23.1113C28.2766 22.0738 29.515 21.7503 30.4965 22.0478C31.1287 22.2597 31.7272 22.7469 32.0881 23.5241C33.7762 22.431 33.7728 22.4381 34.9515 21.6869C34.52 21.0178 34.2897 20.7091 34.0072 20.4228C32.9919 19.2888 31.6084 18.7047 29.3959 18.7494L28.2434 18.8985C27.139 19.1775 26.0866 19.7572 25.4694 20.5344C23.6175 22.6356 24.1456 26.3131 26.399 27.8266C28.619 29.4928 31.8803 29.8719 32.2969 31.43C32.7022 33.3375 30.895 33.955 29.0987 33.7356C27.775 33.4603 27.0387 32.7875 26.2428 31.5641C24.7778 32.4119 24.7778 32.4119 23.2715 33.2781C23.6287 34.0591 24.0041 34.4125 24.6028 35.0891C27.4366 37.9635 34.5278 37.8222 35.7997 33.4716C35.8512 33.3222 36.1937 32.326 35.9184 30.79ZM21.2669 18.9797H17.6078L17.5928 28.4397C17.5928 30.4516 17.6969 32.296 17.3697 32.8613C16.8344 33.9731 15.4472 33.8353 14.815 33.6197C14.1716 33.3035 13.8444 32.8538 13.4653 32.2181C13.3612 32.0356 13.2831 31.8944 13.2569 31.8835L10.2819 33.7053C10.7766 34.7206 11.5053 35.6019 12.4387 36.1744C13.8331 37.0113 15.7072 37.2678 17.6672 36.8178C18.9428 36.4463 20.0434 35.6766 20.6197 34.505C21.4528 32.9691 21.274 31.11 21.2666 29.0538C21.2853 25.6991 21.2669 22.345 21.2669 18.9797Z" fill="#323330"/>
</svg>
