<svg width="40" height="40" viewBox="0 0 40 40" fill="none" xmlns="http://www.w3.org/2000/svg">
<path fill-rule="evenodd" clip-rule="evenodd" d="M4.97937 0C4.62719 0.0275 4.28125 0.023125 3.94031 0.116563C3.19438 0.32125 2.53156 0.648438 1.94687 1.15281C1.60312 1.44906 1.30312 1.76844 1.04844 2.14469C0.655312 2.72563 0.3875 3.35 0.253125 4.05281C0.306875 4.14688 0.363438 4.24563 0.423438 4.34594C0.804375 4.98281 1.18562 5.61531 1.5675 6.25156L2.57125 7.92063C2.88 8.435 3.18812 8.94969 3.49625 9.46406L5.91844 13.5053C6.39562 14.3006 6.87406 15.0953 7.35063 15.8909L9.10344 18.8194C9.60875 19.6628 10.115 20.5056 10.6213 21.3484L10.6887 21.4466C10.7622 21.47 10.8206 21.45 10.8813 21.4356C11.5481 21.2756 12.215 21.1166 12.8819 20.9572C13.9634 20.6987 15.045 20.4413 16.1266 20.1825L17.8206 19.7772C18.9141 19.5159 20.0078 19.2553 21.1012 18.9934C22.2066 18.7291 23.3116 18.4634 24.4172 18.1988C24.9759 18.0647 25.5347 17.9313 26.0938 17.7978C27.1753 17.5397 28.2569 17.2822 29.3384 17.0247L32.8722 16.1831L33.0631 16.1316L33.0109 16.0281L31.0941 13.3166L30.0753 11.8778L29.1016 10.4987L27.1403 7.7275C26.815 7.26813 26.4891 6.80938 26.1634 6.35031L25.6487 5.62344C25.5695 5.51276 25.5077 5.39062 25.4653 5.26125C25.3634 4.94531 25.4797 4.735 25.6641 4.57969C25.7834 4.47875 25.9209 4.40469 26.0697 4.36094C26.2763 4.29745 26.4859 4.24426 26.6978 4.20156C27.1225 4.12125 27.55 4.05313 27.9762 3.98219L29.4213 3.74656C29.7259 3.69625 30.0303 3.64344 30.335 3.59188C30.7491 3.52188 31.1631 3.45156 31.5775 3.3825C31.9797 3.315 32.3819 3.24813 32.7841 3.18188L34.1006 2.96656L35.0144 2.81313C35.3619 2.755 35.7091 2.69719 36.0562 2.64031C36.4894 2.56969 36.9222 2.49844 37.3553 2.43063C37.6134 2.39031 37.8716 2.37625 38.1278 2.45C38.3179 2.50629 38.4971 2.5943 38.6578 2.71031L38.8831 2.8675C38.9056 2.81563 38.8731 2.7875 38.8581 2.75781C38.5383 2.10578 38.0847 1.52845 37.5269 1.06344C37.0092 0.628536 36.4107 0.300358 35.7656 0.0978125C35.3816 -0.02375 34.9869 0.0328125 34.585 0.00250001M17.0903 39.1503C17.0709 39.1503 17.0538 39.0097 17.0319 38.9725C16.5631 38.1725 16.0894 37.3138 15.6263 36.5109C15.0431 35.4988 14.4643 34.4842 13.8897 33.4672C13.2756 32.3803 12.6669 31.2903 12.0575 30.2009C11.4784 29.1653 10.9004 28.129 10.3234 27.0922C9.975 26.4656 9.62875 25.8378 9.28063 25.2109L9.18813 25.0675L9.01875 25.1009C8.68375 25.1875 8.34938 25.2747 8.015 25.3628C7.54938 25.4853 7.08406 25.61 6.61812 25.7316C5.57219 26.0038 4.52625 26.2744 3.48031 26.5456C2.41656 26.8219 1.30813 27.0988 0.244063 27.3738C0.179375 27.3903 0.3125 27.3959 0 27.4069V34.0147C0.12875 34.2197 0.116563 34.1231 0.124688 34.1906C0.149375 34.3863 0.189375 34.5834 0.22375 34.7772C0.3525 35.4991 0.642187 36.16 1.06094 36.7619C1.675 37.645 2.49281 38.2763 3.49469 38.6625C3.8525 38.8 4.22594 38.8969 4.60781 38.9438L4.99563 39.0463" fill="#FD4F31"/>
<path fill-rule="evenodd" clip-rule="evenodd" d="M1.2425 23.7572C2.47344 23.4644 3.70469 23.1719 4.93563 22.8797C5.47625 22.7516 6.01719 22.625 6.55781 22.4963C6.82812 22.4319 7.09906 22.3706 7.36719 22.2981C7.60594 22.2337 7.63531 22.1547 7.5125 21.9394C7.335 21.6281 7.15438 21.3187 6.97469 21.0084L3.81031 15.5581C3.27375 14.6337 2.73656 13.7094 2.19969 12.7853L0.820938 10.4134C0.622187 10.0716 0.380938 9.72875 0.18125 9.38719C0.144063 9.325 0.3125 9.25062 0 9.2175V24.0287C0 24.0187 0.141562 24.0103 0.189375 23.9987L1.2425 23.7572ZM39.1325 34.3441C38.65 34.5156 38.1672 34.6884 37.685 34.8613L34.3897 36.0428C33.7794 36.2619 33.1703 36.4834 32.5597 36.7016C31.3153 37.1456 30.0703 37.5881 28.8256 38.0312C28.1044 38.2881 27.3828 38.6056 26.6619 38.8638C26.4644 38.9347 26.2697 39.1503 26.0741 39.1503H34.3522L34.5303 39.0481C34.7409 39.0391 34.9481 38.9766 35.155 38.9388C36.0047 38.7834 36.7656 38.4159 37.4397 37.8787C37.9575 37.4659 38.3787 36.9613 38.7087 36.3856C39.0481 35.7931 39.2497 35.1522 39.3466 34.4791C39.355 34.4209 39.3731 34.355 39.3244 34.295C39.2556 34.2897 39.195 34.3219 39.1325 34.3441ZM38.4216 23.2281C38.0566 22.7288 37.6906 22.2303 37.3262 21.7306C36.8234 21.0409 36.3216 20.3506 35.8194 19.6606C35.6153 19.3806 35.4084 19.1028 35.2094 18.8197C35.1494 18.7344 35.0809 18.7116 34.9875 18.7369L34.9341 18.7522C34.0097 18.9769 33.085 19.2009 32.1603 19.425L27.2622 20.6144C26.1938 20.8741 25.1253 21.1341 24.0566 21.3931L20.7247 22.2C19.6319 22.4653 18.5397 22.7316 17.4472 22.9972L14.2778 23.7666C13.7194 23.9022 13.1609 24.0372 12.6031 24.1734C12.5209 24.1934 12.4325 24.1984 12.345 24.2647L12.4197 24.4069C13.4167 26.1302 14.4165 27.852 15.4191 29.5722C16.0047 30.5763 16.5919 31.5797 17.1784 32.5834C17.5156 33.16 17.8506 33.7372 18.1906 34.3122C18.5677 34.9512 18.9482 35.5882 19.3322 36.2231C19.4475 36.4128 19.5784 36.5941 19.7103 36.7728C19.7986 36.893 19.9097 36.9946 20.0372 37.0719C20.1703 37.1522 20.3137 37.1775 20.465 37.1434C20.5431 37.1256 20.6197 37.1 20.6953 37.0738L20.9734 36.9706C21.985 36.6247 22.9962 36.2788 24.0081 35.9341C24.7975 35.6653 25.5878 35.3978 26.3778 35.1306C27.1619 34.8647 27.9466 34.6 28.7309 34.3353L31.0666 33.5466C31.8628 33.2775 32.6588 33.0084 33.4547 32.7388C34.4316 32.4072 35.4081 32.0744 36.3856 31.7434C37.3278 31.4247 38.2709 31.1078 39.2134 30.7897C39.2713 30.7703 39.335 30.7622 39.3828 30.6988L39.3887 30.5616C39.3891 28.6069 39.3884 26.6519 39.3906 24.6972C39.3926 24.5986 39.3607 24.5023 39.3003 24.4244C39.0041 24.0278 38.7137 23.6272 38.4216 23.2281ZM38.2594 4.81C38.04 4.53219 37.7606 4.44406 37.4181 4.53344C37.2691 4.5725 37.1159 4.59719 36.9641 4.625C36.4659 4.71625 35.9672 4.80594 35.4691 4.89625C34.7397 5.02875 34.0106 5.1625 33.2812 5.29375C32.7038 5.3975 32.1259 5.49969 31.5481 5.60094L29.23 6.00656C29.1328 6.02344 29.0347 6.04031 28.9409 6.07031C28.8044 6.11406 28.765 6.19969 28.8275 6.32812C28.8784 6.43312 28.9419 6.53344 29.0106 6.62781C29.49 7.28844 29.9716 7.9475 30.4531 8.60687C31.1169 9.51594 31.7809 10.4247 32.445 11.3331C33.0069 12.1019 33.5694 12.8706 34.1316 13.6391C34.5734 14.2428 35.0153 14.8466 35.4578 15.45L35.545 15.5556L39.3797 14.6078L39.3887 14.4091C39.3891 11.7494 39.3884 9.08969 39.3906 6.42969C39.3906 6.31219 39.3622 6.21781 39.2881 6.12469C38.9656 5.7175 38.6491 5.30562 38.33 4.89562L38.2594 4.81ZM39.2909 17.6978C38.7109 17.8372 38.1287 17.9697 37.5347 18.1269C37.5975 18.2384 39.2269 20.4378 39.3216 20.5422L39.3809 20.575L39.3875 20.4409L39.3878 19.515C39.3881 18.9778 39.3894 18.4406 39.3881 17.9034C39.3881 17.8381 39.4066 17.7678 39.3616 17.7016L39.2909 17.6978Z" fill="#FD4F31"/>
</svg>
