<svg width="41" height="49" viewBox="0 0 41 49" fill="none" xmlns="http://www.w3.org/2000/svg">
<path fill-rule="evenodd" clip-rule="evenodd" d="M39.7489 36.8115L23.1325 1.52417C22.926 1.08989 22.6059 0.719516 22.2062 0.452244C21.8065 0.184973 21.3419 0.0307499 20.8617 0.00589951C20.3806 -0.0263327 19.8999 0.0739555 19.4719 0.295857C19.0438 0.517758 18.6848 0.852778 18.4339 1.26448L0.411577 30.4546C0.137519 30.8954 -0.00520325 31.4051 0.000144981 31.9241C0.00549321 32.4431 0.15869 32.9498 0.441774 33.3848L9.25304 47.0299C9.58639 47.5421 10.0764 47.9328 10.65 48.1438C11.2236 48.3547 11.85 48.3745 12.4357 48.2003L38.0059 40.6368C38.3909 40.5242 38.7473 40.3303 39.0509 40.0682C39.3545 39.806 39.5983 39.4818 39.7658 39.1173C39.9309 38.7547 40.0151 38.3605 40.0124 37.9621C40.0097 37.5637 39.9201 37.1706 39.7501 36.8103L39.7489 36.8115ZM36.0287 38.325L14.3308 44.7411C13.6689 44.9379 13.0336 44.3642 13.1713 43.6963L20.9233 6.57781C21.0682 5.8833 22.0273 5.77339 22.3304 6.41596L36.6809 36.89C36.7444 37.0258 36.7776 37.1738 36.7783 37.3237C36.7791 37.4735 36.7473 37.6218 36.6851 37.7582C36.623 37.8946 36.5321 38.0159 36.4185 38.1138C36.305 38.2116 36.1728 38.2837 36.0287 38.325Z" fill="black"/>
</svg>
