<svg xmlns="http://www.w3.org/2000/svg" xmlns:xlink="http://www.w3.org/1999/xlink" width="500" zoomAndPan="magnify" viewBox="0 0 375 374.999991" height="500" preserveAspectRatio="xMidYMid meet" version="1.0"><defs><g/><clipPath id="8cb1ea6783"><path d="M 63.585938 61.8125 L 311.414062 61.8125 L 311.414062 309.636719 L 63.585938 309.636719 Z M 63.585938 61.8125 " clip-rule="nonzero"/></clipPath><clipPath id="028c27d0a1"><path d="M 187.5 61.8125 C 119.066406 61.8125 63.585938 117.289062 63.585938 185.722656 C 63.585938 254.160156 119.066406 309.636719 187.5 309.636719 C 255.933594 309.636719 311.414062 254.160156 311.414062 185.722656 C 311.414062 117.289062 255.933594 61.8125 187.5 61.8125 Z M 187.5 61.8125 " clip-rule="nonzero"/></clipPath></defs><g clip-path="url(#8cb1ea6783)"><g clip-path="url(#028c27d0a1)"><path fill="#ffc61a" d="M 63.585938 61.8125 L 311.414062 61.8125 L 311.414062 309.636719 L 63.585938 309.636719 Z M 63.585938 61.8125 " fill-opacity="1" fill-rule="nonzero"/></g></g><g fill="#372a28" fill-opacity="1"><g transform="translate(119.811434, 97.346601)"><g><path d="M -3.703125 77.46875 C -3.703125 65.65625 -0.53125 54.59375 5.8125 44.28125 C 12.15625 33.96875 20.96875 25.769531 32.25 19.6875 C 43.53125 13.613281 56.132812 10.578125 70.0625 10.578125 C 84.34375 10.578125 97.125 13.53125 108.40625 19.4375 C 119.6875 25.34375 128.453125 33.316406 134.703125 43.359375 C 140.960938 53.410156 144.09375 64.515625 144.09375 76.671875 C 144.09375 93.421875 137.75 108.140625 125.0625 120.828125 L 140.40625 120.828125 L 140.40625 156 L 0 156 L 0 120.828125 L 14.8125 120.828125 C 8.632812 114.484375 4.003906 107.828125 0.921875 100.859375 C -2.160156 93.898438 -3.703125 86.101562 -3.703125 77.46875 Z M 28.5625 83.8125 C 28.5625 91.039062 30.28125 97.609375 33.71875 103.515625 C 37.15625 109.421875 42.085938 114.046875 48.515625 117.390625 C 54.953125 120.742188 62.3125 122.421875 70.59375 122.421875 C 78.707031 122.421875 85.890625 120.742188 92.140625 117.390625 C 98.398438 114.046875 103.25 109.460938 106.6875 103.640625 C 110.125 97.828125 111.84375 91.21875 111.84375 83.8125 C 111.84375 76.238281 109.988281 69.585938 106.28125 63.859375 C 102.582031 58.128906 97.601562 53.71875 91.34375 50.625 C 85.09375 47.539062 78.085938 46 70.328125 46 C 62.398438 46 55.257812 47.628906 48.90625 50.890625 C 42.5625 54.160156 37.582031 58.65625 33.96875 64.375 C 30.363281 70.101562 28.5625 76.582031 28.5625 83.8125 Z M 28.5625 83.8125 "/></g></g></g></svg>