<svg width="610" height="579" viewBox="0 0 610 579" fill="none" xmlns="http://www.w3.org/2000/svg">
<path d="M497.094 463.786C463.322 510.842 415.519 545.997 360.538 564.215C305.557 582.432 246.22 582.776 191.031 565.198C135.843 547.619 87.6358 513.02 53.3198 466.359C19.0038 419.699 0.340433 363.372 0.00461009 305.452L173.354 304.447C173.477 325.759 180.345 346.485 192.971 363.654C205.598 380.823 223.336 393.554 243.643 400.022C263.95 406.491 285.784 406.364 306.015 399.661C326.245 392.957 343.834 380.022 356.261 362.707L497.094 463.786Z" fill="black"/>
<path d="M573.838 222.768C586.636 264.116 589.466 307.905 582.097 350.557C574.728 393.208 557.369 433.509 531.44 468.166L392.636 364.319C402.177 351.567 408.564 336.737 411.275 321.044C413.987 305.35 412.946 289.237 408.237 274.023L573.838 222.768Z" fill="#FCC203"/>
<path d="M559.124 115.152C575.822 138.594 588.725 164.518 597.361 191.973L431.998 243.99C428.82 233.888 424.072 224.349 417.928 215.723L559.124 115.152Z" fill="#FCC203"/>
<path d="M385.937 13.6637C440.972 31.7173 488.879 66.7304 522.792 113.685L382.261 215.183C369.782 197.906 352.155 185.023 331.904 178.38L385.937 13.6637Z" fill="#FCC203"/>
<path d="M0 294.757C3.78392e-06 251.474 10.2438 208.806 29.8939 170.24C49.544 131.675 78.0424 98.3076 113.059 72.8665C148.076 47.4253 188.617 30.6328 231.367 23.8619C274.117 17.0909 317.863 20.5338 359.027 33.909L305.459 198.776C290.312 193.855 274.215 192.588 258.485 195.08C242.755 197.571 227.838 203.75 214.953 213.111C202.068 222.472 191.582 234.75 184.352 248.941C177.121 263.131 173.352 278.831 173.352 294.757L0 294.757Z" fill="#666666"/>
<path d="M220.136 518.393C219.856 519.436 219.429 520.363 218.852 521.175C218.266 521.971 217.57 522.612 216.763 523.1C215.956 523.588 215.077 523.905 214.127 524.05C213.18 524.183 212.198 524.113 211.181 523.841C210.163 523.568 209.278 523.138 208.525 522.549C207.775 521.948 207.172 521.234 206.717 520.408C206.265 519.57 205.991 518.661 205.895 517.683C205.785 516.701 205.872 515.682 206.155 514.626C206.469 513.454 206.958 512.453 207.622 511.623C208.276 510.777 209.083 510.137 210.041 509.704L211.357 512.21C210.705 512.532 210.174 512.942 209.765 513.44C209.342 513.934 209.041 514.516 208.862 515.186C208.693 515.817 208.641 516.424 208.705 517.007C208.77 517.59 208.943 518.127 209.226 518.617C209.509 519.107 209.885 519.532 210.355 519.892C210.827 520.24 211.386 520.5 212.03 520.672C212.674 520.845 213.287 520.899 213.871 520.834C214.457 520.757 214.996 520.577 215.486 520.294C215.975 520.011 216.394 519.633 216.742 519.16C217.089 518.688 217.348 518.136 217.517 517.505C217.696 516.835 217.733 516.182 217.627 515.546C217.509 514.907 217.241 514.283 216.824 513.675L219.217 512.163C219.83 513.017 220.215 513.976 220.372 515.04C220.532 516.09 220.453 517.208 220.136 518.393ZM223.293 506.301C222.996 507.409 222.501 508.332 221.806 509.07C221.114 509.796 220.302 510.303 219.369 510.592C218.426 510.864 217.44 510.862 216.41 510.585C215.367 510.306 214.511 509.814 213.844 509.111C213.167 508.391 212.717 507.546 212.494 506.575C212.262 505.588 212.294 504.541 212.591 503.433C212.884 502.339 213.378 501.422 214.073 500.683C214.755 499.941 215.561 499.432 216.49 499.157C217.42 498.881 218.413 498.885 219.469 499.168C220.499 499.444 221.355 499.936 222.035 500.643C222.702 501.346 223.152 502.191 223.385 503.178C223.617 504.165 223.586 505.206 223.293 506.301ZM220.82 505.638C220.955 505.136 220.96 504.654 220.835 504.193C220.71 503.732 220.466 503.328 220.103 502.982C219.728 502.633 219.244 502.379 218.651 502.221C218.046 502.058 217.5 502.036 217.012 502.154C216.525 502.272 216.112 502.5 215.774 502.837C215.435 503.174 215.198 503.594 215.063 504.096C214.929 504.598 214.924 505.08 215.049 505.541C215.174 506.003 215.416 506.413 215.775 506.771C216.138 507.117 216.622 507.371 217.228 507.533C217.82 507.692 218.366 507.714 218.866 507.6C219.357 507.469 219.772 507.235 220.11 506.898C220.449 506.56 220.686 506.141 220.82 505.638ZM226.556 494.125C226.293 495.104 225.838 495.927 225.19 496.596C224.528 497.261 223.736 497.718 222.814 497.968C221.894 498.204 220.894 498.178 219.812 497.888C218.717 497.595 217.831 497.116 217.153 496.451C216.479 495.773 216.028 494.983 215.801 494.08C215.574 493.177 215.591 492.236 215.853 491.257C216.088 490.382 216.486 489.667 217.049 489.114C217.611 488.56 218.333 488.209 219.216 488.059C220.098 487.909 221.151 487.997 222.374 488.325C223.585 488.65 224.543 489.093 225.248 489.654C225.941 490.213 226.392 490.872 226.602 491.632C226.816 492.38 226.801 493.211 226.556 494.125ZM224.223 492.941C224.354 492.452 224.357 491.976 224.232 491.515C224.107 491.053 223.863 490.65 223.501 490.304C223.128 489.942 222.646 489.682 222.053 489.523C221.448 489.361 220.9 489.345 220.41 489.476C219.922 489.594 219.509 489.821 219.171 490.159C218.832 490.496 218.597 490.909 218.466 491.398C218.331 491.901 218.326 492.382 218.451 492.844C218.576 493.305 218.818 493.715 219.178 494.074C219.54 494.419 220.025 494.673 220.63 494.836C221.222 494.994 221.769 495.016 222.269 494.902C222.759 494.771 223.174 494.537 223.513 494.2C223.851 493.863 224.088 493.443 224.223 492.941ZM227.271 490.838L225.146 490.269L222.07 489.383L218.947 488.753L212.9 487.133L213.708 484.119L228.042 487.96L227.271 490.838ZM228.789 485.17L218.396 482.386L219.204 479.372L229.597 482.157L228.789 485.17ZM217.351 480.49C217.203 481.044 216.921 481.452 216.506 481.713C216.09 481.975 215.645 482.042 215.168 481.914C214.692 481.786 214.339 481.505 214.11 481.071C213.881 480.637 213.841 480.144 213.99 479.59C214.138 479.036 214.413 478.627 214.816 478.362C215.205 478.093 215.638 478.023 216.114 478.151C216.617 478.285 216.989 478.571 217.23 479.009C217.463 479.43 217.503 479.924 217.351 480.49ZM221.491 470.216C221.712 469.392 222.076 468.703 222.584 468.149C223.082 467.578 223.722 467.197 224.505 467.007C225.274 466.813 226.187 466.857 227.243 467.14L233.193 468.735L232.386 471.748L226.899 470.278C226.062 470.054 225.394 470.075 224.895 470.342C224.399 470.595 224.061 471.057 223.882 471.727C223.754 472.203 223.742 472.662 223.844 473.104C223.937 473.529 224.16 473.906 224.514 474.236C224.871 474.552 225.371 474.797 226.015 474.969L231.154 476.346L230.346 479.36L219.953 476.575L220.724 473.696L223.603 474.468L222.589 474.776C221.993 474.216 221.602 473.538 221.415 472.743C221.228 471.947 221.253 471.105 221.491 470.216ZM239.158 462.085C238.895 463.064 238.519 463.978 238.03 464.827C237.556 465.666 237 466.325 236.361 466.802L234.519 465.025C234.997 464.684 235.428 464.206 235.814 463.591C236.216 462.967 236.505 462.327 236.681 461.67C236.967 460.601 236.936 459.765 236.587 459.16C236.242 458.543 235.599 458.109 234.659 457.857L233.094 457.438L230.538 456.546L227.9 455.88L225.659 455.28L226.425 452.421L235.08 454.74C237.012 455.257 238.3 456.141 238.945 457.391C239.591 458.64 239.661 460.205 239.158 462.085ZM234.629 461.369C234.37 462.335 233.929 463.155 233.307 463.831C232.674 464.489 231.921 464.957 231.046 465.233C230.162 465.493 229.218 465.489 228.213 465.22C227.196 464.947 226.376 464.479 225.753 463.815C225.121 463.135 224.702 462.353 224.497 461.47C224.296 460.574 224.324 459.643 224.583 458.677C224.818 457.801 225.205 457.077 225.745 456.504C226.272 455.927 226.959 455.552 227.807 455.379C228.641 455.202 229.637 455.269 230.796 455.58C231.943 455.887 232.839 456.327 233.486 456.901C234.12 457.471 234.528 458.139 234.709 458.906C234.89 459.672 234.863 460.493 234.629 461.369ZM232.316 460.107C232.458 459.579 232.481 459.082 232.385 458.614C232.277 458.144 232.06 457.74 231.736 457.405C231.412 457.07 230.999 456.835 230.496 456.7C229.981 456.562 229.506 456.559 229.07 456.691C228.622 456.819 228.239 457.062 227.923 457.419C227.593 457.772 227.358 458.213 227.216 458.741C227.075 459.269 227.058 459.768 227.167 460.239C227.263 460.706 227.471 461.114 227.792 461.462C228.103 461.794 228.516 462.029 229.031 462.167C229.534 462.302 230.009 462.305 230.457 462.177C230.909 462.036 231.3 461.788 231.629 461.435C231.946 461.078 232.175 460.635 232.316 460.107Z" fill="white"/>
<path d="M118.139 123.792L128.038 113.892L132.536 118.39C133.61 119.464 134.35 120.619 134.756 121.854C135.171 123.08 135.241 124.292 134.968 125.489C134.695 126.686 134.053 127.789 133.045 128.798C132.045 129.798 130.942 130.439 129.735 130.722C128.538 130.995 127.322 130.929 126.087 130.524C124.861 130.109 123.711 129.364 122.636 128.289L118.139 123.792ZM122.311 124.202L124.404 126.295C125.064 126.955 125.757 127.403 126.483 127.639C127.228 127.874 127.963 127.893 128.689 127.695C129.424 127.507 130.103 127.101 130.725 126.479C131.357 125.847 131.762 125.168 131.942 124.442C132.14 123.716 132.116 122.986 131.871 122.25C131.645 121.515 131.201 120.817 130.542 120.157L128.448 118.064L122.311 124.202ZM133.33 139.209C132.463 138.342 131.869 137.409 131.548 136.409C131.237 135.419 131.194 134.453 131.421 133.51C131.656 132.558 132.151 131.705 132.906 130.95C133.669 130.187 134.518 129.687 135.451 129.451C136.404 129.215 137.351 129.239 138.294 129.522C139.246 129.795 140.109 130.319 140.882 131.092C141.627 131.837 142.136 132.666 142.409 133.581C142.701 134.495 142.725 135.424 142.48 136.367C142.244 137.3 141.716 138.177 140.896 138.997C140.811 139.082 140.707 139.176 140.585 139.28C140.472 139.374 140.363 139.464 140.26 139.549L134.079 133.369L135.366 132.082L140.387 137.102L139.157 136.635C139.552 136.239 139.816 135.815 139.948 135.363C140.08 134.91 140.085 134.462 139.963 134.019C139.849 133.567 139.604 133.152 139.227 132.775C138.85 132.397 138.431 132.148 137.969 132.025C137.525 131.903 137.073 131.912 136.611 132.053C136.158 132.185 135.729 132.454 135.324 132.859L134.985 133.199C134.57 133.614 134.292 134.071 134.15 134.571C134.028 135.07 134.046 135.57 134.207 136.07C134.386 136.569 134.702 137.046 135.154 137.498C135.56 137.903 135.975 138.196 136.399 138.375C136.832 138.563 137.299 138.662 137.799 138.672L137.7 141.118C136.955 141.166 136.21 141.034 135.465 140.722C134.73 140.402 134.018 139.898 133.33 139.209ZM141.035 146.915C140.385 146.264 139.833 145.562 139.381 144.808C138.947 144.053 138.674 143.384 138.561 142.799L140.88 141.951C141.012 142.517 141.243 143.106 141.573 143.719C141.922 144.331 142.327 144.869 142.789 145.331C143.298 145.84 143.718 146.137 144.048 146.222C144.387 146.316 144.665 146.255 144.882 146.038C145.061 145.859 145.108 145.642 145.024 145.387C144.958 145.133 144.811 144.845 144.585 144.525C144.359 144.204 144.104 143.855 143.821 143.478C143.548 143.111 143.284 142.724 143.029 142.319C142.784 141.904 142.605 141.479 142.492 141.046C142.379 140.612 142.374 140.174 142.478 139.731C142.591 139.297 142.864 138.863 143.298 138.429C143.779 137.949 144.34 137.661 144.981 137.567C145.632 137.482 146.325 137.6 147.06 137.92C147.805 138.231 148.545 138.755 149.28 139.49C149.799 140.009 150.27 140.593 150.695 141.244C151.119 141.894 151.402 142.507 151.543 143.082L149.238 143.917C149.087 143.332 148.861 142.814 148.559 142.361C148.276 141.908 147.96 141.508 147.612 141.159C147.121 140.669 146.697 140.376 146.339 140.282C145.98 140.188 145.698 140.244 145.49 140.452C145.302 140.64 145.24 140.862 145.306 141.116C145.382 141.38 145.528 141.677 145.745 142.007C145.962 142.337 146.207 142.686 146.48 143.054C146.772 143.422 147.041 143.813 147.286 144.228C147.531 144.643 147.706 145.062 147.81 145.486C147.932 145.911 147.942 146.344 147.838 146.787C147.744 147.221 147.48 147.655 147.046 148.089C146.574 148.56 146.013 148.838 145.363 148.923C144.722 148.998 144.029 148.871 143.284 148.541C142.549 148.221 141.799 147.678 141.035 146.915ZM146.102 151.755L153.71 144.146L155.916 146.353L148.308 153.961L146.102 151.755ZM155.874 144.189C155.469 143.783 155.257 143.336 155.238 142.845C155.219 142.355 155.384 141.936 155.733 141.587C156.081 141.238 156.501 141.073 156.991 141.092C157.482 141.111 157.929 141.323 158.335 141.728C158.74 142.134 158.957 142.577 158.985 143.057C159.023 143.529 158.867 143.939 158.519 144.288C158.151 144.656 157.717 144.835 157.218 144.825C156.737 144.816 156.289 144.604 155.874 144.189ZM151.077 162.443C150.36 161.727 149.757 160.944 149.267 160.096C148.776 159.266 148.484 158.455 148.39 157.663L150.851 156.956C150.907 157.541 151.105 158.153 151.444 158.795C151.784 159.455 152.194 160.025 152.675 160.506C153.457 161.288 154.197 161.68 154.895 161.68C155.602 161.689 156.3 161.35 156.988 160.661L158.134 159.516L160.184 157.748L162.079 155.796L163.72 154.156L165.813 156.249L159.477 162.585C158.063 163.999 156.654 164.673 155.249 164.607C153.844 164.541 152.453 163.82 151.077 162.443ZM153.962 158.879C153.255 158.172 152.764 157.38 152.491 156.504C152.236 155.627 152.208 154.741 152.406 153.845C152.623 152.949 153.099 152.134 153.835 151.398C154.579 150.653 155.395 150.177 156.281 149.97C157.186 149.762 158.072 149.791 158.94 150.055C159.817 150.328 160.609 150.818 161.316 151.526C161.957 152.167 162.39 152.864 162.617 153.619C162.852 154.363 162.834 155.146 162.56 155.966C162.296 156.777 161.74 157.607 160.891 158.455C160.052 159.294 159.223 159.851 158.402 160.124C157.592 160.388 156.809 160.407 156.055 160.181C155.301 159.954 154.603 159.521 153.962 158.879ZM156.21 157.508C156.597 157.894 157.016 158.163 157.469 158.314C157.931 158.455 158.388 158.469 158.841 158.356C159.293 158.243 159.703 158.003 160.071 157.635C160.448 157.258 160.689 156.848 160.792 156.405C160.906 155.952 160.887 155.499 160.736 155.047C160.594 154.585 160.33 154.161 159.944 153.774C159.557 153.388 159.133 153.124 158.671 152.982C158.219 152.831 157.761 152.808 157.299 152.911C156.856 153.015 156.446 153.256 156.069 153.633C155.701 154 155.461 154.411 155.348 154.863C155.244 155.325 155.263 155.787 155.404 156.249C155.555 156.702 155.824 157.121 156.21 157.508ZM172.604 162.814C173.207 163.417 173.622 164.077 173.848 164.794C174.094 165.51 174.103 166.255 173.877 167.028C173.66 167.792 173.165 168.56 172.392 169.333L168.036 173.689L165.83 171.483L169.846 167.466C170.459 166.854 170.775 166.264 170.794 165.699C170.822 165.142 170.591 164.619 170.101 164.129C169.752 163.78 169.361 163.54 168.927 163.408C168.512 163.276 168.074 163.28 167.612 163.422C167.159 163.573 166.697 163.884 166.226 164.355L162.464 168.117L160.258 165.911L167.866 158.302L169.973 160.41L167.866 162.517L168.107 161.484C168.889 161.249 169.672 161.249 170.454 161.484C171.237 161.72 171.953 162.163 172.604 162.814Z" fill="white"/>
<path d="M398.248 144.115C397.805 144.882 397.277 145.519 396.664 146.027C396.046 146.521 395.372 146.877 394.643 147.096C393.918 147.306 393.173 147.368 392.409 147.284C391.65 147.191 390.906 146.934 390.176 146.512C389.446 146.091 388.851 145.575 388.391 144.964C387.936 144.344 387.62 143.664 387.445 142.922C387.27 142.18 387.249 141.417 387.382 140.631C387.506 139.841 387.792 139.058 388.24 138.282C388.736 137.422 389.324 136.734 390.005 136.216C390.692 135.688 391.443 135.346 392.26 135.19L392.759 137.399C392.186 137.536 391.693 137.762 391.277 138.077C390.852 138.386 390.499 138.785 390.216 139.275C389.944 139.746 389.77 140.218 389.694 140.691C389.618 141.165 389.635 141.624 389.747 142.071C389.864 142.508 390.067 142.914 390.355 143.29C390.648 143.657 391.026 143.973 391.488 144.24C391.94 144.501 392.399 144.667 392.863 144.738C393.332 144.8 393.79 144.775 394.237 144.663C394.679 144.536 395.084 144.327 395.45 144.033C395.822 143.731 396.141 143.348 396.408 142.886C396.664 142.443 396.842 141.973 396.944 141.478C397.041 140.967 397.034 140.415 396.921 139.821L399.279 139.482C399.372 140.238 399.322 141.028 399.129 141.853C398.942 142.668 398.648 143.422 398.248 144.115ZM397.804 141.364L394.159 139.26L395.343 137.21L399.279 139.482L397.804 141.364ZM403.388 135.084C403.031 135.703 402.591 136.187 402.068 136.538C401.551 136.88 400.97 137.044 400.325 137.029C399.672 137.009 398.962 136.777 398.195 136.335L393.983 133.903L395.231 131.741L399.124 133.989C399.743 134.346 400.275 134.481 400.72 134.393C401.161 134.29 401.52 133.999 401.798 133.519C401.99 133.186 402.091 132.85 402.102 132.512C402.103 132.168 401.999 131.837 401.789 131.518C401.569 131.194 401.233 130.902 400.781 130.64L397.095 128.512L398.343 126.351L405.797 130.655L404.613 132.706L402.563 131.522L403.375 131.491C403.748 132.04 403.927 132.636 403.912 133.28C403.894 133.91 403.719 134.511 403.388 135.084ZM402.004 119.753C402.345 119.162 402.769 118.705 403.276 118.382C403.779 118.044 404.353 117.882 404.997 117.897C405.632 117.907 406.328 118.13 407.086 118.567L411.354 121.031L410.106 123.193L406.17 120.921C405.57 120.574 405.049 120.452 404.608 120.555C404.173 120.648 403.816 120.935 403.539 121.415C403.341 121.757 403.237 122.109 403.224 122.472C403.208 122.819 403.303 123.157 403.508 123.485C403.718 123.803 404.054 124.096 404.516 124.363L408.202 126.491L406.954 128.652L399.499 124.348L400.691 122.284L402.755 123.476L401.908 123.504C401.564 122.948 401.402 122.343 401.422 121.69C401.442 121.036 401.636 120.391 402.004 119.753ZM415.14 114.73C414.777 115.358 414.321 115.827 413.772 116.138C413.223 116.45 412.589 116.576 411.871 116.519C411.149 116.447 410.354 116.16 409.486 115.659C408.608 115.152 407.959 114.612 407.54 114.037C407.12 113.462 406.908 112.859 406.903 112.228C406.898 111.597 407.085 110.953 407.463 110.298C407.869 109.595 408.393 109.061 409.036 108.693C409.676 108.311 410.375 108.123 411.134 108.131C411.899 108.129 412.67 108.352 413.446 108.8C414.231 109.253 414.814 109.812 415.194 110.475C415.58 111.129 415.768 111.828 415.757 112.573C415.751 113.309 415.545 114.027 415.14 114.73ZM415.173 120.624L405.03 114.768L406.222 112.703L407.746 113.583L409.939 114.905L412.223 116.038L416.421 118.462L415.173 120.624ZM413.15 114.08C413.358 113.719 413.459 113.353 413.453 112.98C413.452 112.597 413.347 112.235 413.138 111.893C412.925 111.536 412.606 111.235 412.182 110.989C411.747 110.739 411.327 110.613 410.921 110.613C410.52 110.603 410.154 110.693 409.822 110.884C409.496 111.065 409.229 111.335 409.021 111.696C408.813 112.056 408.709 112.427 408.71 112.81C408.711 113.192 408.816 113.554 409.025 113.897C409.234 114.239 409.555 114.535 409.99 114.786C410.414 115.031 410.832 115.161 411.242 115.177C411.643 115.186 412.009 115.096 412.341 114.906C412.672 114.715 412.942 114.44 413.15 114.08ZM418.008 109.505L407.727 103.569L408.975 101.407L419.256 107.343L418.008 109.505ZM423.055 100.765L421.6 99.9246L421.201 99.8792L418.596 98.3752C418.134 98.1085 417.691 98.0437 417.267 98.1807C416.849 98.3085 416.471 98.6634 416.135 99.2454C415.906 99.6426 415.744 100.073 415.649 100.535C415.551 100.983 415.53 101.403 415.588 101.793L413.63 101.697C413.578 101.125 413.639 100.508 413.813 99.8443C413.986 99.1809 414.244 98.5536 414.585 97.9624C415.241 96.8262 416.018 96.0986 416.917 95.7798C417.815 95.461 418.832 95.6296 419.969 96.2856L424.223 98.7416L423.055 100.765ZM421.853 103.101C421.517 103.683 421.132 104.126 420.698 104.43C420.255 104.728 419.799 104.889 419.329 104.914C418.859 104.938 418.412 104.828 417.987 104.582C417.543 104.326 417.217 103.996 417.007 103.591C416.802 103.178 416.744 102.682 416.831 102.104C416.909 101.521 417.167 100.851 417.604 100.093L418.748 98.1119L420.009 98.8399L419.001 100.586C418.708 101.094 418.588 101.493 418.642 101.783C418.702 102.064 418.856 102.276 419.106 102.42C419.383 102.58 419.666 102.602 419.955 102.485C420.24 102.354 420.492 102.099 420.711 101.721C420.919 101.36 421.022 100.989 421.021 100.607C421.011 100.219 420.877 99.8645 420.619 99.5432L421.809 99.7866C422.198 100.221 422.398 100.718 422.407 101.278C422.417 101.837 422.232 102.445 421.853 103.101Z" fill="white"/>
<path d="M475.357 205.62C474.558 205.948 473.76 206.126 472.964 206.153C472.174 206.167 471.428 206.035 470.726 205.759C470.024 205.482 469.397 205.077 468.843 204.543C468.299 204.006 467.867 203.347 467.547 202.568C467.226 201.788 467.07 201.016 467.079 200.252C467.097 199.483 467.259 198.753 467.563 198.063C467.878 197.369 468.323 196.754 468.898 196.217C469.469 195.671 470.159 195.232 470.968 194.899C471.866 194.53 472.74 194.356 473.59 194.375C474.446 194.381 475.244 194.584 475.985 194.983L475.029 197.036C474.508 196.777 473.99 196.639 473.474 196.62C472.955 196.591 472.439 196.682 471.926 196.893C471.443 197.092 471.031 197.353 470.691 197.677C470.352 198.001 470.095 198.372 469.921 198.79C469.746 199.207 469.658 199.653 469.657 200.126C469.665 200.596 469.771 201.077 469.974 201.57C470.176 202.064 470.44 202.48 470.764 202.82C471.098 203.155 471.474 203.41 471.891 203.585C472.309 203.759 472.752 203.842 473.222 203.833C473.691 203.825 474.167 203.722 474.651 203.523C475.164 203.312 475.597 203.019 475.95 202.643C476.299 202.257 476.566 201.784 476.751 201.224L478.874 202.012C478.628 202.817 478.205 203.527 477.604 204.143C477.014 204.754 476.265 205.247 475.357 205.62ZM484.58 201.76C483.731 202.109 482.903 202.241 482.097 202.158C481.299 202.07 480.583 201.8 479.947 201.346C479.316 200.879 478.839 200.25 478.514 199.461C478.186 198.662 478.084 197.88 478.207 197.114C478.336 196.334 478.656 195.638 479.165 195.025C479.68 194.398 480.362 193.91 481.21 193.562C482.049 193.217 482.871 193.086 483.678 193.17C484.481 193.243 485.196 193.509 485.822 193.967C486.449 194.424 486.928 195.058 487.261 195.867C487.585 196.656 487.687 197.438 487.568 198.214C487.444 198.98 487.125 199.676 486.61 200.303C486.095 200.93 485.418 201.415 484.58 201.76ZM483.801 199.866C484.186 199.708 484.495 199.477 484.728 199.174C484.96 198.87 485.099 198.52 485.143 198.121C485.182 197.713 485.109 197.281 484.922 196.828C484.732 196.364 484.481 196.006 484.169 195.753C483.858 195.501 483.513 195.348 483.134 195.296C482.755 195.245 482.373 195.298 481.989 195.456C481.604 195.614 481.295 195.845 481.062 196.148C480.829 196.451 480.686 196.804 480.632 197.207C480.589 197.605 480.662 198.036 480.853 198.5C481.039 198.954 481.29 199.312 481.606 199.575C481.927 199.823 482.277 199.973 482.656 200.025C483.035 200.077 483.416 200.024 483.801 199.866ZM490.721 199.098L487.376 190.958C487.007 190.06 486.979 189.236 487.293 188.484C487.603 187.722 488.251 187.139 489.237 186.733C489.573 186.596 489.908 186.498 490.242 186.442C490.586 186.381 490.897 186.38 491.175 186.439L491.255 188.36C491.091 188.324 490.919 188.314 490.741 188.33C490.563 188.345 490.385 188.389 490.208 188.462C489.872 188.6 489.651 188.806 489.545 189.081C489.444 189.341 489.473 189.664 489.631 190.049L489.935 190.789L490.402 191.756L493.03 198.149L490.721 199.098ZM487.023 193.594L486.293 191.818L491.813 189.55L492.543 191.325L487.023 193.594ZM496.56 196.698L493.214 188.559C492.845 187.661 492.818 186.836 493.132 186.084C493.441 185.323 494.089 184.739 495.076 184.334C495.411 184.196 495.746 184.099 496.081 184.042C496.425 183.981 496.736 183.98 497.013 184.039L497.094 185.961C496.929 185.925 496.758 185.914 496.58 185.93C496.402 185.946 496.224 185.99 496.046 186.063C495.711 186.201 495.49 186.407 495.383 186.681C495.283 186.942 495.312 187.264 495.47 187.649L495.774 188.389L496.241 189.356L498.868 195.749L496.56 196.698ZM492.862 191.194L492.132 189.419L497.652 187.15L498.382 188.926L492.862 191.194ZM505.9 192.997C504.993 193.37 504.12 193.521 503.284 193.45C502.457 193.375 501.731 193.108 501.104 192.65C500.474 192.183 499.997 191.555 499.672 190.765C499.344 189.966 499.236 189.186 499.35 188.424C499.469 187.648 499.779 186.956 500.278 186.347C500.773 185.729 501.426 185.253 502.235 184.92C503.014 184.6 503.783 184.48 504.543 184.56C505.308 184.626 506.001 184.895 506.621 185.366C507.238 185.828 507.722 186.488 508.075 187.346C508.112 187.435 508.149 187.541 508.188 187.663C508.223 187.776 508.256 187.883 508.286 187.986L501.819 190.644L501.266 189.297L506.519 187.138L505.796 187.903C505.625 187.488 505.393 187.163 505.1 186.926C504.807 186.689 504.477 186.547 504.113 186.501C503.744 186.445 503.362 186.498 502.967 186.661C502.572 186.823 502.259 187.056 502.026 187.359C501.799 187.648 501.666 187.985 501.628 188.37C501.586 188.745 501.653 189.144 501.827 189.568L501.973 189.924C502.151 190.358 502.403 190.704 502.728 190.962C503.06 191.207 503.434 191.347 503.853 191.383C504.277 191.404 504.726 191.318 505.199 191.123C505.623 190.949 505.967 190.733 506.23 190.475C506.503 190.213 506.72 189.899 506.881 189.533L508.656 190.36C508.462 190.924 508.135 191.433 507.675 191.887C507.212 192.331 506.62 192.701 505.9 192.997ZM515.236 189.16C514.329 189.533 513.456 189.684 512.62 189.613C511.793 189.537 511.067 189.271 510.44 188.813C509.81 188.346 509.333 187.718 509.008 186.928C508.68 186.129 508.572 185.349 508.686 184.587C508.805 183.811 509.115 183.119 509.614 182.51C510.109 181.892 510.762 181.416 511.571 181.083C512.35 180.763 513.119 180.643 513.879 180.723C514.644 180.789 515.337 181.058 515.957 181.529C516.574 181.991 517.058 182.651 517.411 183.509C517.448 183.598 517.485 183.704 517.524 183.826C517.559 183.939 517.592 184.046 517.622 184.149L511.155 186.807L510.602 185.46L515.855 183.301L515.132 184.066C514.961 183.651 514.729 183.326 514.436 183.089C514.143 182.852 513.813 182.71 513.448 182.664C513.08 182.608 512.698 182.661 512.303 182.824C511.908 182.986 511.595 183.219 511.362 183.522C511.135 183.811 511.002 184.148 510.964 184.533C510.922 184.908 510.988 185.307 511.163 185.731L511.309 186.086C511.487 186.521 511.739 186.867 512.064 187.125C512.396 187.37 512.77 187.51 513.189 187.545C513.613 187.567 514.062 187.481 514.535 187.286C514.959 187.112 515.303 186.896 515.566 186.638C515.839 186.375 516.056 186.061 516.217 185.695L517.992 186.523C517.798 187.087 517.471 187.596 517.011 188.05C516.548 188.494 515.956 188.864 515.236 189.16Z" fill="white"/>
<path d="M437.734 321.282L440.633 310.464L445.315 311.719C446.284 311.978 447.076 312.361 447.691 312.869C448.308 313.365 448.729 313.959 448.953 314.648C449.177 315.337 449.18 316.089 448.962 316.903C448.746 317.707 448.369 318.351 447.831 318.836C447.292 319.321 446.63 319.63 445.844 319.761C445.06 319.883 444.184 319.814 443.216 319.554L439.924 318.672L441.339 317.842L440.237 321.953L437.734 321.282ZM441.264 318.12L440.471 316.632L443.623 317.477C444.396 317.684 445.017 317.674 445.487 317.446C445.956 317.219 446.27 316.811 446.427 316.224C446.587 315.626 446.521 315.112 446.228 314.68C445.935 314.248 445.402 313.928 444.63 313.721L441.477 312.877L442.908 311.985L441.264 318.12ZM456.198 317.186C456.857 317.362 457.409 317.654 457.852 318.059C458.309 318.458 458.613 318.97 458.766 319.596C458.921 320.212 458.885 320.942 458.659 321.787L457.383 326.547L454.972 325.901L456.148 321.512C456.328 320.842 456.311 320.308 456.098 319.908C455.895 319.512 455.526 319.242 454.99 319.098C454.609 318.996 454.241 318.986 453.888 319.068C453.548 319.142 453.246 319.321 452.983 319.604C452.729 319.889 452.534 320.29 452.396 320.805L451.294 324.916L448.883 324.27L451.956 312.802L454.367 313.448L452.905 318.904L452.55 318.063C452.998 317.587 453.541 317.274 454.177 317.124C454.813 316.975 455.487 316.995 456.198 317.186ZM463.552 328.333C462.666 328.095 461.928 327.699 461.337 327.143C460.756 326.59 460.351 325.94 460.12 325.194C459.902 324.44 459.904 323.65 460.125 322.826C460.349 321.992 460.742 321.307 461.304 320.773C461.88 320.232 462.556 319.872 463.333 319.694C464.123 319.508 464.961 319.533 465.847 319.771C466.722 320.006 467.456 320.401 468.047 320.957C468.64 321.502 469.047 322.147 469.268 322.891C469.488 323.634 469.485 324.429 469.259 325.274C469.038 326.098 468.645 326.782 468.079 327.326C467.517 327.86 466.84 328.22 466.051 328.406C465.261 328.592 464.428 328.568 463.552 328.333ZM464.083 326.355C464.484 326.462 464.87 326.466 465.239 326.366C465.608 326.266 465.931 326.071 466.207 325.781C466.487 325.48 466.69 325.093 466.817 324.619C466.947 324.135 466.964 323.698 466.87 323.308C466.776 322.919 466.594 322.588 466.324 322.317C466.054 322.046 465.718 321.857 465.317 321.749C464.915 321.641 464.529 321.638 464.16 321.737C463.791 321.837 463.463 322.031 463.176 322.319C462.9 322.609 462.697 322.996 462.567 323.48C462.44 323.954 462.422 324.391 462.514 324.791C462.618 325.184 462.806 325.516 463.075 325.787C463.345 326.058 463.681 326.247 464.083 326.355ZM473.123 330.897C472.144 330.635 471.448 330.183 471.035 329.543C470.624 328.891 470.551 328.071 470.816 327.082L472.771 319.788L475.182 320.434L473.235 327.697C473.141 328.048 473.161 328.345 473.294 328.591C473.43 328.826 473.657 328.986 473.977 329.072C474.358 329.174 474.71 329.158 475.033 329.024L475.227 330.898C474.933 331.007 474.598 331.061 474.223 331.059C473.861 331.051 473.494 330.997 473.123 330.897ZM470.448 323.323L470.945 321.468L476.71 323.013L476.213 324.868L470.448 323.323ZM480.139 332.777C479.253 332.54 478.515 332.143 477.924 331.587C477.343 331.034 476.937 330.384 476.707 329.638C476.489 328.884 476.491 328.095 476.712 327.271C476.935 326.436 477.328 325.752 477.891 325.218C478.467 324.676 479.143 324.316 479.92 324.138C480.709 323.952 481.547 323.978 482.433 324.215C483.309 324.45 484.042 324.845 484.633 325.401C485.227 325.947 485.634 326.591 485.854 327.335C486.075 328.079 486.072 328.873 485.845 329.718C485.625 330.542 485.231 331.226 484.666 331.771C484.103 332.304 483.427 332.664 482.637 332.85C481.848 333.036 481.015 333.012 480.139 332.777ZM480.669 330.799C481.071 330.907 481.457 330.911 481.826 330.811C482.195 330.711 482.518 330.516 482.794 330.225C483.073 329.925 483.277 329.538 483.404 329.064C483.533 328.579 483.551 328.142 483.457 327.753C483.362 327.363 483.18 327.033 482.911 326.762C482.641 326.491 482.305 326.301 481.903 326.194C481.501 326.086 481.116 326.082 480.747 326.182C480.378 326.282 480.05 326.475 479.763 326.763C479.486 327.053 479.283 327.441 479.154 327.925C479.027 328.399 479.009 328.836 479.1 329.236C479.205 329.628 479.392 329.96 479.662 330.231C479.932 330.502 480.267 330.691 480.669 330.799ZM489.417 338.477C488.634 338.267 487.902 337.966 487.223 337.574C486.552 337.196 486.025 336.751 485.643 336.24L487.065 334.766C487.338 335.148 487.72 335.493 488.212 335.802C488.711 336.123 489.223 336.354 489.749 336.495C490.604 336.724 491.273 336.699 491.757 336.42C492.25 336.144 492.598 335.63 492.799 334.878L493.135 333.626L493.848 331.581L494.381 329.471L494.861 327.678L497.148 328.291L495.293 335.214C494.879 336.76 494.172 337.791 493.172 338.307C492.173 338.823 490.921 338.88 489.417 338.477ZM489.99 334.854C489.217 334.646 488.561 334.294 488.021 333.796C487.493 333.29 487.119 332.687 486.898 331.988C486.69 331.28 486.694 330.525 486.909 329.721C487.127 328.907 487.502 328.251 488.033 327.753C488.577 327.247 489.202 326.912 489.909 326.748C490.626 326.587 491.37 326.61 492.143 326.817C492.844 327.005 493.423 327.315 493.882 327.747C494.343 328.168 494.643 328.718 494.782 329.396C494.923 330.063 494.87 330.86 494.621 331.788C494.375 332.705 494.023 333.422 493.564 333.94C493.108 334.447 492.573 334.773 491.96 334.918C491.347 335.063 490.69 335.041 489.99 334.854ZM490.999 333.004C491.421 333.117 491.82 333.135 492.193 333.059C492.57 332.972 492.893 332.799 493.161 332.539C493.429 332.28 493.617 331.949 493.725 331.548C493.835 331.135 493.838 330.755 493.732 330.407C493.63 330.048 493.436 329.742 493.15 329.489C492.867 329.225 492.515 329.037 492.092 328.924C491.67 328.81 491.27 328.797 490.894 328.884C490.52 328.961 490.194 329.127 489.915 329.384C489.649 329.633 489.461 329.964 489.351 330.376C489.243 330.777 489.241 331.158 489.344 331.517C489.456 331.878 489.654 332.191 489.937 332.454C490.223 332.707 490.577 332.891 490.999 333.004ZM497.164 337.207L499.392 328.892L501.695 329.509L501.066 331.858L500.923 331.091C501.328 330.57 501.843 330.233 502.469 330.081C503.098 329.918 503.804 329.942 504.587 330.151L503.991 332.377C503.891 332.339 503.799 332.309 503.717 332.287C503.637 332.255 503.551 332.226 503.458 332.201C502.799 332.024 502.212 332.071 501.698 332.342C501.197 332.605 500.84 333.134 500.627 333.927L499.575 337.853L497.164 337.207ZM508.317 340.195L508.751 338.572L508.692 338.175L509.471 335.27C509.609 334.755 509.557 334.31 509.315 333.936C509.083 333.565 508.642 333.292 507.993 333.118C507.55 332.999 507.093 332.954 506.622 332.982C506.163 333.003 505.753 333.092 505.391 333.249L504.977 331.332C505.516 331.135 506.128 331.034 506.814 331.03C507.499 331.026 508.172 331.112 508.831 331.289C510.099 331.628 511.002 332.191 511.543 332.976C512.083 333.761 512.184 334.788 511.844 336.055L510.573 340.799L508.317 340.195ZM505.749 339.639C505.1 339.465 504.572 339.208 504.167 338.868C503.764 338.517 503.49 338.117 503.345 337.67C503.2 337.223 503.191 336.762 503.317 336.288C503.45 335.793 503.684 335.392 504.021 335.085C504.367 334.78 504.831 334.595 505.412 334.53C505.995 334.454 506.709 334.53 507.554 334.756L509.764 335.348L509.387 336.755L507.44 336.233C506.873 336.081 506.457 336.069 506.191 336.196C505.935 336.327 505.77 336.531 505.696 336.809C505.613 337.118 505.665 337.397 505.852 337.646C506.053 337.888 506.364 338.065 506.786 338.178C507.188 338.286 507.574 338.29 507.943 338.19C508.315 338.08 508.622 337.858 508.866 337.526L508.939 338.738C508.62 339.227 508.192 339.549 507.653 339.702C507.115 339.856 506.48 339.835 505.749 339.639ZM517.637 342.825C516.936 342.637 516.364 342.318 515.922 341.868C515.479 341.418 515.193 340.839 515.062 340.131C514.945 339.414 515.016 338.572 515.275 337.604C515.538 336.625 515.892 335.858 516.339 335.305C516.785 334.751 517.313 334.389 517.921 334.221C518.529 334.053 519.199 334.067 519.931 334.263C520.714 334.473 521.366 334.841 521.888 335.367C522.422 335.886 522.784 336.513 522.974 337.248C523.174 337.986 523.157 338.788 522.926 339.653C522.691 340.529 522.303 341.237 521.76 341.776C521.229 342.318 520.602 342.68 519.879 342.862C519.167 343.047 518.42 343.034 517.637 342.825ZM511.952 344.382L514.983 333.069L517.286 333.686L516.83 335.387L516.121 337.847L515.617 340.346L514.363 345.028L511.952 344.382ZM517.749 340.735C518.151 340.842 518.531 340.845 518.89 340.742C519.259 340.642 519.582 340.447 519.859 340.157C520.148 339.859 520.357 339.473 520.484 338.999C520.613 338.515 520.626 338.077 520.521 337.684C520.427 337.294 520.245 336.964 519.975 336.693C519.716 336.425 519.385 336.237 518.983 336.129C518.582 336.021 518.196 336.018 517.827 336.117C517.458 336.217 517.135 336.412 516.859 336.703C516.582 336.993 516.379 337.38 516.249 337.865C516.122 338.338 516.104 338.775 516.196 339.175C516.29 339.565 516.472 339.896 516.742 340.167C517.012 340.438 517.348 340.627 517.749 340.735ZM530.74 337.159C531.4 337.336 531.951 337.627 532.394 338.033C532.851 338.431 533.155 338.944 533.308 339.57C533.463 340.186 533.428 340.916 533.201 341.761L531.926 346.521L529.515 345.875L530.691 341.486C530.87 340.816 530.853 340.281 530.64 339.882C530.437 339.485 530.068 339.215 529.532 339.072C529.151 338.969 528.784 338.959 528.43 339.041C528.09 339.116 527.788 339.295 527.525 339.577C527.272 339.863 527.076 340.263 526.938 340.778L525.836 344.889L523.426 344.243L526.498 332.776L528.909 333.422L527.447 338.877L527.093 338.037C527.541 337.561 528.083 337.248 528.719 337.098C529.356 336.948 530.029 336.969 530.74 337.159ZM534.175 350.47C533.742 350.354 533.332 350.172 532.946 349.925C532.559 349.678 532.264 349.4 532.059 349.091L533.4 347.612C533.541 347.826 533.718 348.012 533.93 348.168C534.152 348.327 534.382 348.438 534.619 348.501C534.959 348.593 535.249 348.582 535.489 348.47C535.736 348.37 535.992 348.157 536.257 347.83L536.963 346.926L537.218 346.713L542.123 340.342L544.441 340.963L538.321 348.781C537.874 349.379 537.424 349.822 536.971 350.109C536.529 350.399 536.076 350.565 535.612 350.606C535.159 350.65 534.679 350.605 534.175 350.47ZM536.346 348.053L534.952 338.42L537.44 339.087L538.451 346.812L536.346 348.053Z" fill="white"/>
</svg>
